<?xml version="1.0" standalone="no"?>
<!DOCTYPE svg PUBLIC "-//W3C//DTD SVG 1.1//EN" "http://www.w3.org/Graphics/SVG/1.1/DTD/svg11.dtd">
<svg xmlns="http://www.w3.org/2000/svg">
<metadata>Copyright (C) 2025 by original authors @ fontello.com</metadata>
<defs>
<font id="waf-font-icon" horiz-adv-x="1000" >
<font-face font-family="waf-font-icon" font-weight="400" font-stretch="normal" units-per-em="1000" ascent="850" descent="-150" />
<missing-glyph horiz-adv-x="1000" />
<glyph glyph-name="multisport" unicode="&#xe800;" d="M849 524l-145-24c-52 119-14 61-158 222-1 2-3 4-5 4l-112 55c-15 9-35 9-50 4l-174-53c-37-11-57-50-47-86 11-37 50-58 85-47l148 45 25-12c-47-40-153-135-154-137-32-27-42-69-29-113 3-10 82-190 84-192h-163c-38 0-68-32-68-69 0-39 32-70 68-70h69l-55-66c-25-28-22-73 7-98 28-25 73-22 97 7l132 156h18c51 0 84 52 64 98l-84 191c32 28 121 107 158 141l36-86c12-26 36-43 64-43 10 0 2 0 208 32 38 7 63 43 57 80-2 41-37 66-76 61z m-601-608c-13-15-35-17-50-4-15 14-17 36-3 51l73 87h94l-114-134z m618 503c-198-32-196-32-204-32-14 0-27 8-32 22l-47 108c-5 10-18 12-27 5-8-6-174-155-182-162-7-5-9-14-5-21l89-203c10-24-7-51-32-51h-272c-20 0-35 17-35 36 0 20 17 35 35 35h188c12 0 20 12 15 24-15 34-77 178-92 214 0 0 0 0 0 1-8 31 0 56 20 75 2 2 151 135 173 154 8 8 6 22-4 27l-53 27c-4 2-9 2-12 2l-154-49c-19-5-39 5-45 23-5 19 5 39 23 46l174 54c9 4 19 2 25-1l109-55 112-125 42-96c4-7 10-12 19-11l157 26c20 3 39-10 40-31 9-20-5-39-25-42z m-160 202c55 0 100 47 100 105 0 57-45 104-100 104-55 0-100-47-100-104 0-58 45-105 100-105z m0 178c39 0 70-33 70-73 0-41-31-73-70-73-39 0-70 32-70 73 0 40 31 73 70 73z" horiz-adv-x="971" />

<glyph glyph-name="poll" unicode="&#xe801;" d="M917-98h-834c-17 0-31 14-31 31 0 17 14 32 31 32h834c17 0 31-15 31-32 0-17-14-31-31-31z m-323 0h-188c-17 0-31 14-31 31v750c0 72 40 115 106 115h38c66 0 106-43 106-115v-750c0-17-14-31-31-31z m-156 63h125v718c0 48-23 52-44 52h-38c-21 0-43-4-43-52v-718z m-146-63h-167c-17 0-31 14-31 31v500c0 72 36 115 98 115h33c61 0 98-43 98-115v-500c0-17-14-31-31-31z m-136 63h104v468c0 52-22 52-35 52h-33c-13 0-36 0-36-52v-468z m719-63h-167c-17 0-31 14-31 31v292c0 72 37 115 98 115h33c62 0 98-43 98-115v-292c0-17-14-31-31-31z m-135 63h104v260c0 52-23 52-36 52h-33c-12 0-35 0-35-52v-260z" horiz-adv-x="1000" />

<glyph glyph-name="bold" unicode="&#xe802;" d="M500 319h-297c-17 0-31 14-31 31v313c0 63 51 114 115 114h213c126 0 229-103 229-229 0-126-103-229-229-229z m-266 62h266c92 0 167 75 167 167 0 92-75 167-167 167h-213c-29 0-52-24-52-52v-282h-1z m365-458h-312c-64 0-115 51-115 115v312c0 17 14 31 31 31h396c126 0 229-103 229-229 0-126-103-229-229-229z m-365 396v-281c0-29 24-53 52-53h313c92 0 166 75 166 167 0 92-74 167-166 167h-365z" horiz-adv-x="1000" />

<glyph glyph-name="collaborator" unicode="&#xe803;" d="M500 319c-132 0-240 107-240 239 0 132 108 240 240 240 132 0 240-108 240-240 0-132-108-239-240-239z m0 416c-97 0-177-79-177-177 0-97 80-177 177-177 98 0 177 80 177 177 0 98-79 177-177 177z m-358-833c-17 0-31 14-31 31 0 178 174 323 389 323 42 0 83-5 123-16 17-5 27-22 22-39-5-16-22-26-38-21-34 9-70 14-107 14-180 0-327-117-327-261 0-17-14-31-31-31z m608 0c-49 0-96 18-132 51-15 13-28 28-38 45-18 30-28 66-28 102 0 52 20 101 56 138 37 39 88 60 142 60 57 0 110-24 147-66 33-36 51-83 51-132 0-16-2-32-6-47-4-18-12-38-23-55-35-59-100-96-169-96z m0 333c-37 0-71-14-97-40-25-26-38-59-38-95 0-25 6-49 19-70 7-11 16-22 26-30 25-23 57-36 90-36 47 0 92 25 116 66 7 11 12 25 15 38 3 10 4 21 4 32 0 33-12 65-35 90-25 29-61 45-100 45z m63-165h-125c-17 0-31 14-31 31 0 17 14 31 31 31h125c17 0 31-14 31-31 0-17-14-31-31-31z m-63-64c-17 0-31 14-31 31v125c0 17 14 31 31 31 17 0 31-14 31-31v-125c0-17-14-31-31-31z" horiz-adv-x="1000" />

<glyph glyph-name="android" unicode="&#xe816;" d="M0 201l0 269q0 26 19 45t44 18q26 0 45-18t18-45l0-269q0-26-18-44t-45-19-44 19-19 44z m173-100l0 418 574 0 0-418q0-26-18-44t-45-19l-448 0q-26 0-44 19t-19 44z m0 465l574 0q0 115-85 189t-202 74-202-74-85-189z m101 316q0 8 7 8 3 0 7-2l49-89-15-8q-48 88-48 91z m15-807q0 27 19 45t47 18q25 0 44-19t19-44l0-202q0-28-19-46t-47-17q-26 0-44 18t-19 45l0 202z m5 620q0 16 12 28t28 11 28-11 11-28q0-17-11-28t-29-12q-16 0-27 12t-12 28z m208-620q0 27 20 45t46 18q26 0 45-18t18-45l0-202q0-28-19-46t-47-17q-26 0-44 18t-19 45l0 202z m45 620q0 16 12 28t28 11 28-11 11-28q0-17-12-28t-28-12-27 12-12 28z m36 104q2 3 14 29t24 44 18 18 7-9l0-2-48-89z m211-598l0 268q0 26 19 45t44 19 45-19 18-45l0-268q0-26-18-44t-45-19-45 19-18 44z" horiz-adv-x="920" />

<glyph glyph-name="checkmark" unicode="&#xe819;" d="M0 339q0-35 24-60l246-239q24-25 60-25 36 0 60 25l505 495q25 24 25 59t-25 58q-25 25-60 25t-60-25l-445-435-185 181q-25 24-60 24t-61-24q-24-24-24-59z" horiz-adv-x="920.4" />

<glyph glyph-name="bookmark" unicode="&#xe81e;" d="M650 779q12 0 24-5 19-8 29-23t11-35v-719q0-19-11-35t-29-23q-10-4-24-4-27 0-47 18l-246 236-246-236q-20-19-46-19-13 0-25 5-18 7-29 23t-11 35v719q0 19 11 35t29 23q12 5 25 5h585z" horiz-adv-x="714.3" />

<glyph glyph-name="tabletennis" unicode="&#xe823;" d="M783-103c-93 0-170 76-170 170 0 93 77 169 170 169 94 0 170-76 170-169 0-94-76-170-170-170z m0 302c-73 0-132-60-132-132 0-73 59-132 132-132 73 0 132 59 132 132 0 72-59 132-132 132z m-550 295l-26-27 397-396 27 26-398 397z m-47-597c-16 0-31 6-43 18l-78 78c-12 11-18 26-18 42 0 17 6 32 18 43l154 157c11 11 14 26 8 39-39 93-39 200 1 292 41 96 121 170 226 210 103 38 214 36 304-7 95-45 160-126 185-228 27-117-2-250-77-347l-11-11-27 27 10 9c66 86 93 207 68 313-22 91-80 163-164 203-81 38-181 40-274 5-96-35-168-103-205-189-36-83-36-178-1-262 12-27 5-59-16-81l-154-156c-5-5-7-10-7-17 0-6 2-11 6-15l79-79c8-8 23-8 32 0l157 155c22 21 53 27 81 16 58-25 122-32 184-22l6-37c-69-12-140-3-205 24-13 6-29 2-40-8l-157-155c-11-11-26-17-42-17z" horiz-adv-x="1000" />

<glyph glyph-name="hockey" unicode="&#xe824;" d="M286-99c-44 0-84 16-113 47-14 15-22 25-32 46-24 50-21 111 7 158 10 18 17 25 39 25 13 0 27-8 34-15 8-9 17-21 17-34 0-19-29-43-7-89 20-40 74-61 110-36 11 7 17 13 24 25l111 181c6 11 12 21 19 31l111 181c6 11 13 21 19 32l31-23c4-3 7-5 11-7l-61-109c-3-6-6-12-10-18l-51-91c-7-12-14-24-20-36l-82-145c-3-6-6-12-10-18-11-20-18-34-32-52-5-5-10-9-15-14-24-22-61-39-100-39z m400 554c-11 8-31 24-41 29 3 6 6 11 10 16 3 6 6 11 10 16 23 37 46 78 70 115 3 5 6 10 10 16l30 49c9 17 22 34 30 50 6-1 27-15 33-19-1-4-7-13-9-17-3-6-6-11-10-17l-57-102c-3-6-6-11-9-17l-38-67c-4-6-7-11-10-18l-19-34z m171 304c-5 4-11 7-16 10-5 3-10 6-15 9l12 22 31-19c-4-7-8-15-12-22z m-552-729c-5 0-13 2-17 4-16 7-28 21-28 43 0 11 27 43 4 89-21 43-79 66-124 35-20-14-35-49-43-73-19-60-6-132 29-181 4-5 6-9 10-14 10-10 10-13 24-24 5-4 9-8 14-11 6-3 9-6 15-9 49-29 120-36 173-10 32 17 55 34 78 66 11 16 74 131 88 155l245 436c6 11 11 20 17 30 6 11 12 21 18 32l26 46c10 18 78 135 78 142 0 6 0 10-5 16-5 5-40 25-50 31-13 8-27 19-39 4-3-4-5-9-7-13l-113-182c-11-17-20-35-31-52l-48-78c-27-42-53-88-80-129-3-5-4-8-7-13-25-38-49-80-73-117-2-5-5-9-8-13l-119-195c-3-5-6-8-10-10-4-2-12-5-17-5z m498-43c0 11 2 20 5 28l11 23c1-3 3-7 5-11 2-4 3-6 4-11 9-28 6-57-9-80-5 3-10 15-11 21-3 8-5 19-5 30z m-132-51c-2 9-23 35-9 80 2 6 8 19 11 22 1-5 4-7 6-11 9-22 11-46 4-69-1-4-3-9-5-13-2-4-3-8-7-9z m27 128c34 19 61 19 94 0-15-24-24-48-25-78 0-10 4-34 7-44 5-13 11-24 18-34-33-19-60-19-94 0 7 12 10 12 17 30 11 29 11 66 0 95-5 12-10 21-17 31z m-77-77c0-123 145-177 220-85 31 40 36 90 17 138-3 9-11 22-17 30-75 93-220 37-220-83z" horiz-adv-x="1000" />

<glyph glyph-name="basketball" unicode="&#xe825;" d="M496-99c0 0 0 0 0 0-36 0-72 4-107 13-116 28-215 100-277 203-63 102-81 223-53 339 49 202 229 343 436 343 36 0 72-4 107-13 240-58 389-302 330-542-49-202-229-343-436-343z m-1 856c-188 0-351-127-395-311-26-105-9-215 48-308 56-92 145-158 251-184 32-7 64-11 97-11 188 0 350 128 395 311 53 218-81 438-299 492-32 7-64 11-97 11z m238-778l-42 3c43 506-419 714-423 717l17 38c5-2 493-223 448-758z m-643 421l-37 19c48 97 152 91 253 85 78-4 159-9 217 33 125 89 42 216 39 222l35 23c38-57 76-190-49-279-71-51-163-45-245-41-95 6-176 11-213-62z m242-465l-7 41c85 14 132 93 182 178 41 69 84 141 150 173 121 59 228-26 268-80l-34-25c-3 5-96 126-215 67-56-26-93-90-133-157-52-89-106-181-211-197z m-187 169l-23 35 726 454 23-35-726-454z" horiz-adv-x="1000" />

<glyph glyph-name="motogp" unicode="&#xe826;" d="M823 373c-14 0-27-2-40-5l-8 21c26 5 76 18 95 55 14 27 10 60-13 99-3 4-67 97-132 89-2 0-4-1-5-2-2-1-3-3-4-4-1-2-2-4-2-6 1-2 1-4 2-6 15-27 39-87 17-104l-17 50c-1 3-3 5-6 7l-40 22c-1 1-3 1-4 1-2 1-4 0-5 0-2 0-3-1-5-2-1-1-2-2-3-4-1-1-1-3-1-5-1-1 0-3 0-4 1-2 1-3 2-5 2-1 3-2 4-3l36-20 16-47c-10-2-20-1-29 4-8 12-43 54-118 51l-21-1c-25 0-50-7-71-21-22-13-40-31-52-53-1-2-2-4-3-6l-98 16-18 72c-1 3-2 5-4 6-1 2-3 3-5 3l-141 35c-2 1-4 1-6 0-2 0-3-1-5-2-1-1-2-3-3-4-1-2-1-4-1-6v-74c0-1 0-3 1-5 1-2 2-3 3-4l247-196-19-37h-41c-9 35-30 66-59 88-30 21-66 31-102 28-37-3-72-20-98-47-25-27-41-62-42-100-1-20 2-41 9-60 8-19 19-37 33-51 14-15 32-27 50-35 19-8 40-12 60-12 34 0 66 11 93 31 27 20 46 49 55 81h41l40-64c2-2 3-3 5-4 2-1 4-2 6-2h234c2 0 4 1 6 2 1 1 3 2 4 4 1 1 2 3 2 5 0 2 0 4 0 6-1 1-31 92 5 164 18 34 48 59 83 71l9-24c-34-15-62-43-77-78-15-34-17-73-5-109 12-35 37-65 70-84 32-19 71-25 108-17 36 8 69 30 91 60 22 31 32 69 28 106-4 37-22 72-50 97-28 25-65 39-102 39z m-646-260c-17 0-34 4-50 11-16 6-30 16-42 29-12 12-21 27-27 43-7 16-9 33-9 51 2 31 15 60 36 83 22 23 51 37 82 39 29 3 59-5 83-22 24-16 42-41 50-69h-37c-7 17-20 31-36 41-16 9-35 13-53 12-22-3-43-13-57-29-15-16-24-37-24-59-1-20 6-40 18-56 12-16 30-28 49-33 20-4 41-2 59 6 19 9 34 23 43 41h37c-8-25-25-48-47-63-22-16-48-25-75-25z m43 88h13c-9-10-20-18-33-22-13-4-27-3-40 1-12 5-23 13-31 25-8 11-12 24-12 38 1 15 7 31 18 42 10 12 25 19 41 21 11 1 23-1 33-6 11-5 20-12 26-22h-15c-15 0-64-12-64-38 0-27 49-39 64-39z m426 122c-31-62-19-135-11-167h-211l-41 64c-1 2-3 3-4 4-2 1-4 2-6 2h-153c-14 1-28 6-39 14 11 8 25 13 39 14h154c2 0 5 0 6 1 2 1 4 3 5 5l27 52c2 3 2 6 2 8-1 3-3 6-5 8l-250 198v53l118-30 19-73c1-2 2-4 4-6 1-1 4-2 6-3l116-19h0c79-11 127-36 143-72 5-13 7-26 6-40-1-13-4-26-10-38-10 11-22 17-36 19-14 1-28-2-39-10-12-8-20-19-24-33-3-13-2-27 5-40 6-12 16-22 29-27 13-6 27-6 41-1 13 4 24 13 31 25 7 12 9 26 6 40 11 17 36 67 14 115-19 42-68 70-146 84 10 18 25 32 42 43 18 11 38 16 59 17l21 1c70 2 97-41 98-42 1-2 2-4 4-5 12-7 26-10 41-9 14 0 27 5 39 14 37 24 16 84 2 117 36-11 75-57 88-76 18-31 22-55 12-74-20-38-90-44-90-44-1 0-2-1-3-1h0-1l0 0c-23-6-44-18-63-33-18-15-34-34-45-55z m-95-63c0-6-2-13-6-18-3-6-8-10-14-12-6-3-13-3-19-2-7 1-13 4-17 9-5 4-8 10-9 17-1 6-1 13 2 19 2 6 6 11 12 14 5 4 12 6 18 6 9 0 17-4 23-10 6-6 10-14 10-23z m272-168c-26 0-50 8-71 22-22 14-38 34-48 57-9 24-12 49-7 74 5 25 17 48 35 66 18 18 41 30 66 35 25 5 50 2 74-7 23-10 43-26 57-48 14-21 22-45 22-71 0-34-14-66-38-90-24-24-56-38-90-38z m0 218c-18 0-35-5-50-15-15-10-26-24-33-40-7-17-9-35-5-52 3-18 12-34 24-46 13-13 29-21 46-25 18-3 36-1 52 6 16 6 30 18 40 33 10 14 15 32 15 49 0 24-9 47-26 64-17 16-39 26-63 26z m0-155c-14 0-28 5-40 14-11 8-19 20-23 34-4 14-3 28 3 41 5 13 14 24 27 32l22-62c1-3 3-6 6-7 3-1 6-2 9 0 3 1 6 3 7 6 2 2 2 6 1 9l-22 62c3 1 6 1 10 1 8 0 17-1 25-4 8-4 15-8 21-14 7-6 12-14 15-22 3-8 5-16 5-25 0-8-2-17-5-25-3-8-8-15-15-21-6-6-13-11-21-14-8-3-17-5-25-5l0 0z" horiz-adv-x="1000" />

<glyph glyph-name="minus" unicode="&#xe827;" d="M786 439v-107q0-22-16-38t-38-15h-678q-23 0-38 15t-16 38v107q0 23 16 38t38 16h678q23 0 38-16t16-38z" horiz-adv-x="785.7" />

<glyph glyph-name="rugby" unicode="&#xe828;" d="M491 547l-9 8-13 13c-4 4-11 4-15 0l37-21z m0 0l10 6m-10-6l10 6m0 0c15 9 31 19 47 27l0 0c5 3 12 1 15-5l0 0c2-5 0-11-5-14l0 0c-12-7-24-13-36-20l-16-10m-5 22l5-22m-194-236c3 7 7 14 11 21l-3 2 10 11 13-7 0-1c-1-1-1-2-2-3 5-4 11-6 17-6l-46-17z m0 0c-5-9-14-14-23-14-4 0-8 1-12 3m35 11l217 198c-2-2-4-3-7-3h0c-3 0-6 1-8 3l-17 17-9 9-10-7c-19-13-36-28-52-43l-11-10 11-11 11-11c0 0 0 0 0 0 4-4 4-11 0-15l0 0c-2-2-5-3-8-3-2 0-5 1-7 3l-12 11-10 11-11-12c-15-16-29-33-42-51l-7-10 8-9 18-17c0 0 0 0 0 0 4-5 4-11 0-16l0 0c-2-2-5-3-8-3-3 0-5 1-8 3l-9 10-14 13-9-16c-7-11-13-22-20-34l0 0c-1-4-5-6-9-6-2 0-3 0-5 1m-7-13l7 13c0 0 0 0 0 0m-7-13c-12 7-17 22-11 34l11-34z m7 13c-5 3-7 9-5 15m5-15l-5 15m0 0c9 16 17 31 27 46l6 10-8 8-14 13c0 0 0 0 0 0-4 5-4 11 0 16l-11-93z m175 241l6-6 12-13-13-10c-17-12-33-26-49-40l-10-10-10 10-13 13c-4 4-11 4-15 0l92 56z m0 0c0 0 0 0 0 0-4 4-4 11 0 15l0-15z m-70-94l-9-10c-14-16-28-32-41-49l-10-14-12 12-6 7c-5 4-11 4-16 0l94 54z m0 0l-10 10m10-10l-10 10m0 0l-12 13c0 0 0 0 0 0m12-13l-12 13m144 49l13-13m-13 13l13-13m0 0l10-10c4-4 4-11 0-15l-10 25z m-157-36c-5 4-5 11 0 15l0-15z m537 275l1-1c16-16 28-49 33-95 4-46 1-103-11-164-16-84-62-243-193-373-132-132-289-179-371-196-43-8-84-13-120-13-34 0-64 4-89 11-24 7-43 16-54 28l0 0c-17 17-30 50-36 96-5 46-3 102 9 164 25 123 86 263 197 373l0 0c108 108 249 170 373 194 62 12 119 15 165 10 47-5 80-17 96-34z m-545-808l0 0c14 3 30 7 48 12l25 7-18 17-283 283-18 18-6-25c-19-66-26-129-25-180 1-25 4-48 10-67 5-18 12-34 23-45 9-9 21-15 36-20 15-5 33-8 54-10 42-4 95-2 154 10z m89 33l6-7 9 4c77 28 172 76 256 160 83 83 131 179 159 257l3 9-7 7-315 315-7 6-9-3c-88-31-181-81-258-158l0 0c-77-77-129-168-161-255l-3-9 7-7 320-319z m458 519l0 0c12 63 14 117 10 157-2 21-5 38-10 52-4 13-10 25-17 32l0 0c-11 11-28 18-47 22-21 5-45 7-73 7-49 0-107-7-169-24l-25-6 18-18 277-277 18-18 7 25c5 17 8 34 11 48z" horiz-adv-x="1000" />

<glyph glyph-name="football" unicode="&#xe829;" d="M831 432c48-180-59-365-238-413-180-48-365 59-413 238-48 180 59 365 238 413 180 48 365-58 413-238z m-301-220l-112 30-81-82 25-95c39-20 83-32 127-35l70 71-29 111z m-195-132l-20 74-74 20c25-38 57-70 94-94z m-110 122l96-26 81 81-29 112-112 30-70-70c3-45 14-88 34-127z m-34 158l55 54-20 74c-21-39-33-83-35-128z m50 156l26-96 111-30 82 82-30 111-96 26c-37-25-69-57-93-93z m121 108l74-19 54 54c-44-2-89-14-128-35z m160 35l-70-70 29-111 112-30 81 81-25 96c-39 20-83 32-127 34z m154-50l20-74 74-20c-25 38-57 70-94 94z m110-121l-96 25-82-81 30-111 112-30 70 70c-3 44-14 87-34 127z m34-159l-55-54 20-74c21 39 33 83 35 128z m-51-155l-25 95-111 30-82-81 30-112 96-25c37 24 69 56 92 93z m-120-109l-74 20-54-55c44 3 89 14 128 35z m-225 198l111-30 82 82-30 111-111 30-82-82 30-111z" horiz-adv-x="1000" />

<glyph glyph-name="cricket" unicode="&#xe82a;" d="M910 772l-2 2c-18 17-46 16-63-1l-170-170-28 27c-17 18-46 18-64 0l-520-520c-14-14-18-35-9-52 15-30 34-57 58-80 0-1 0-1 0-1 23-23 50-43 80-57 17-9 38-5 52 8l520 521c18 18 18 46 0 64l-26 26 171 170c17 17 18 46 1 63l0 0z m-169-299l-521-521c-3-3-9-4-13-2-26 13-51 30-72 52-20 20-38 44-51 71-2 4-1 9 3 13l520 520c5 5 12 5 16 0l118-117c4-5 4-12 0-16l0 0z m144 260l-170-170-17 16 171 170c4 5 11 5 15 1l1-1c5-5 4-12 0-16l0 0z m-360-614c-42-7-76-42-83-84-12-70 48-130 118-119 43 7 77 42 84 84 11 70-49 130-119 119z m2-169c-25 6-45 26-51 52-11 50 33 94 83 82 25-5 45-26 51-51 11-50-33-94-83-83z m383 822l-2 2c-18 17-46 16-63-1l-170-170-28 27c-17 18-46 18-64 0l-520-520c-14-14-18-35-9-52 15-30 34-57 58-80 0-1 0-1 0-1 23-23 50-43 80-57 17-9 38-5 52 8l520 521c18 18 18 46 0 64l-26 26 171 170c17 17 18 46 1 63l0 0z m-169-299l-521-521c-3-3-9-4-13-2-26 13-51 30-72 52-20 20-38 44-51 71-2 4-1 9 3 13l520 520c5 5 12 5 16 0l118-117c4-5 4-12 0-16l0 0z m144 260l-170-170-17 16 171 170c4 5 11 5 15 1l1-1c5-5 4-12 0-16l0 0z m-360-614c-42-7-76-42-83-84-12-70 48-130 118-119 43 7 77 42 84 84 11 70-49 130-119 119z m2-169c-25 6-45 26-51 52-11 50 33 94 83 82 25-5 45-26 51-51 11-50-33-94-83-83z" horiz-adv-x="971" />

<glyph glyph-name="kabaddi" unicode="&#xe82b;" d="M364 376c-15-6-32-4-44 6l-2 2-17 17-7-23-26-78-2-8 5-6 63-76 0 0c8-10 12-21 12-32l0-1 0 0-5-147 0 0c-1-27-22-47-49-47h-2c-11 0-23 5-32 15-9 10-14 23-13 34l0 0 0 1 4 123 0 6-4 5-8 9-17 19-8-25-47-152 0 0 0 0c-6-21-24-34-46-34-5 0-9 0-14 2l0 0 0 0c-26 8-41 35-33 61 0 0 0 0 0 0l63 212 2 7-3 5c-12 19-16 42-10 68l0 0 0 0c9 48 18 86 26 116 8 30 16 50 21 60l0 0 1 0c9 17 27 28 47 32l22 3-13 19c-11 17-17 38-14 58l0 0 0 1c5 50 51 88 101 82 51-5 88-50 83-101-2-25-14-47-33-62l0 0 0 0c-12-11-27-17-42-20l-31-5 24-21c9-7 17-14 24-20 2-2 5-5 8-7l7-6 8 3 61 26c12 5 23 4 33 0 11-4 20-13 24-24l0 0 0 0c5-12 5-23 0-34l0 0 0-1c-4-10-12-18-23-23l-94-39z m-49 324l0 0h-1 0 0 0 0 0 0 0 0 0 0 0 0 0 0 0 0 0 0 0 0 0 0 0 0 0 0 0 0 0 0 0 0 0 0 0-1 0 0 0 0 0 0 0 0 0 0 0 0 0 0 0 0 0 0 0 0 0 0 0 0 0 0 0 0 0 0 0 0 0 0 0 0 0 0 0 0 0 0 0 0 0 0 0 0 0 0 0 0 0 0 0 0 0 0 0 0 0 0 0 0 0 0 0 0 0 0 0 0 0 0 0 0-1 0 0 0 0 0 0 0 0 0 0 0 0 0 0 0 0 0 0 0 0 0 0 0 0 0 0 0 0 0 0 0 0 0 0 0 0 0 0 0 0 0 0 0 0 0 0 0 0 0 0 0 0 0 0 0 0 0 0 0 0 0 0 0 0 0 0 0 0 0 0 0-1 0 0 0 0 0 0 0 0 0 0 0 0 0 0 0 0 0 0 0 0 0 0 0 0 0 0 0 0 0 0 0 0 0 0 0 0 0 0 0 0 0 0 0 0 0 0 0 0 0 0 0 0 0 0 0 0 0 0 0 0 0 0 0 0 0 0 0 0-1 0 0 0 0 0 0 0 0 0 0 0 0 0 0 0 0 0 0 0 0 0 0 0 0 0 0 0 0 0 0 0 0 0 0 0 0 0 0 0 0 0 0 0 0 0 0 0 0 0 0 0 0 0 0 0 0 0 0 0 0 0 0 0 0 0 0 0 0 0-1 0 0 0 0 0 0 0 0 0 0 0 0 0 0 0 0 0 0 0 0 0 0 0 0 0 0 0 0 0 0 0 0 0 0 0 0 0 0 0 0 0 0 0 0 0 0 0 0 0 0 0 0 0 0 0 0 0 0 0 0 0 0 0 0 0 0 0 0 0 0-1 0 0 0 0 0 0 0 0 0 0 0 0 0 0 0 0 0 0 0 0 0 0 0 0 0 0 0 0 0 0 0 0 0 0 0 0 0 0 0 0 0 0 0 0 0 0 0 0 0 0 0 0 0 0 0 0 0 0 0 0 0 0 0 0 0 0 0 0 0 0 0 0 0 0 0 0-1 0 0 0 0 0 0 0 0 0 0 0 0 0 0 0 0 0 0 0 0 0 0 0 0 0 0 0 0 0 0 0 0 0 0 0 0 0 0 0 0c-43 0-79-31-83-74-5-46 29-87 75-91 22-3 44 3 61 18 17 14 27 34 30 56l0 0c5 46-29 86-75 91z m35-241c-1 0-2 1-3 2-12 11-28 25-43 38-8 7-16 13-23 19-6 4-12 9-16 11-11 7-22 9-33 9-22 0-42-10-52-29-9-14-24-54-48-174l0 0 0-1c-4-25-1-46 14-67l0 0 0-1c1 0 1-1 1-1 0 0 0-1 0-2l0 0 0 0-67-218c0 0 0 0 0 0-6-22 7-43 27-50 21-6 43 7 49 27l0 0 56 187c0 0 0 0 1 0 0 1 0 1 1 2 1 0 1 0 1 0 2 1 3 1 3 0 1 0 2 0 3-1l34-43 1 0 0-1c0 0 1 0 1 0 0 0 0 0 0 0 0 0 0-1 0-2l-4-130 0 0v-1c0-10 3-19 10-27 7-8 17-13 28-13 22 0 40 15 41 38l5 147 0 0v1c0 9-4 18-10 26l0 0 0 0-70 84c-1 1-1 2-1 3-1 0 0 1 0 2l0 0 0 0 37 115 0 0 0 1c1 1 1 1 1 1 1 1 1 1 3 2 0 0 0 0 1 0 1-1 2-1 3-2l23-19c10-9 24-10 35-6l95 40c17 7 25 25 20 42l0 2-1 1c-3 7-10 13-18 17-9 3-18 3-26 0l0 0 0 0-73-31 0 0 0 0c-1 0-3-1-6 2z m601-408l-63 211c14 22 18 49 12 78-19 97-36 157-49 181-13 21-34 34-58 38 13 20 19 44 17 68-3 29-17 55-39 72-21 18-50 27-79 24-59-6-101-58-95-117 5-49 41-86 88-95-12-10-24-21-32-28l-61 26c-14 6-30 6-45 0-14-6-26-17-31-31-6-14-6-30 0-44 5-14 16-26 30-32l95-40c20-8 44-5 59 9l2 2 26-78-63-76c-10-12-15-27-15-42l5-148c1-34 29-61 65-61 17 1 33 8 45 20 11 12 17 29 16 45l-4 124 8 9 46-151c8-27 32-45 60-45 6 0 13 1 19 3 32 9 51 45 41 78z m-317 559c-4 38 24 72 61 76 18 2 37-4 51-15 14-12 23-28 25-47 3-37-24-71-62-75-37-4-71 24-75 61z m264-601c-13-4-27 4-31 16l-56 187c-2 7-8 12-15 13-1 0-3 0-4 0-6 0-11-3-15-7l-35-42c-3-4-5-8-5-13l5-130c0-7-2-13-7-17-5-5-11-8-18-8-14 0-24 10-25 23l-5 148c0 6 2 11 6 16l71 84c4 5 6 12 4 19l-39 115c-2 6-7 11-13 13-6 2-13 0-18-4l-23-20c-5-5-13-6-20-3l-95 39c-10 4-15 16-10 26 2 5 6 9 11 11 5 2 10 2 15 0l73-31c7-3 15-2 21 4 24 23 69 63 83 70 24 12 53 5 65-15 7-12 21-49 45-170 4-22 1-41-10-57-4-5-5-10-3-16l66-219c3-15-5-28-18-32z" horiz-adv-x="1000" />

<glyph glyph-name="badminton" unicode="&#xe82c;" d="M871 421c-27 27-61 38-92 35l-17-2 1 17c1 35-14 72-42 100-28 28-65 43-100 42l-17-1 2 17c3 31-8 65-36 92 0 0 0 0 0 1m301-301l-301 301c0 0 0 0 0 0m301-301c28-28 41-65 35-97l-35 97z m-301 301c-27 27-64 40-97 34l0 0c-26-4-47-19-59-42l0 0-182-358 0-1 0 0-60-89 0-2-1-1-28-28c-67-66-67-175 0-242 32-33 75-51 121-51h0c46 0 89 18 121 51l11-11-11 11 28 28 1 1 2 1 89 59 0 0 1 1 358 182 0 0c23 11 38 32 42 59l-336 398z m-252-431l-12 12-41 41-8 8 5 9 174 342c0 0 0 0 0 0 11 21 29 27 41 29l3-14m-162-427l251 310c12 15 15 34 12 52-3 18-13 36-28 51-20 21-49 33-76 28l3-14m-162-427l10 13 224 275 0 0 17 22-251-310z m162 427c20 3 45-6 63-24l-94 3c8 14 21 19 31 21z m402-391l0 0c-2-12-8-30-29-41l29 41z m0 0c5 27-7 56-28 76l0 0c-15 15-33 25-51 28-18 3-37 0-52-11 0 0 0 0 0 0l-195-159 0 0-102-83-13-10 12-12 7-7 0 0 34-34 8-7 9 4 342 174 29 41z m-168 93l0 1c19 15 24 36 24 50 2 30-12 60-34 83-23 22-53 36-83 34l0 0c-14 0-35-5-51-24 0 0 0 0 0 0l-122-151 0 0-105-129-8-10 9-9 71-70 9-10 10 9 87 70 0 0 193 156z m-554-202l0 0c-58-57-58-151 0-208 28-28 65-43 104-43h0c39 0 76 15 104 43l11 11 10 10-10 11-188 187-10 10-10-10-11-11z m240-163l8-8 10 7 47 31 15 10-13 12-210 210-12 13-10-15-32-47-6-10 8-8 195-195z" horiz-adv-x="1000" />

<glyph glyph-name="info" unicode="&#xe82d;" d="M469-70c-232 0-420 188-420 420 0 232 188 420 420 420 231 0 420-188 420-420 0-232-189-420-420-420z m0 781c-199 0-362-162-362-361 0-199 163-361 362-361 199 0 361 162 361 361 0 199-162 361-361 361z m0-400c-22 0-39 18-39 39 0 22 17 39 39 39 21 0 39-17 39-39 0-21-17-39-39-39z m156 0c-22 0-39 18-39 39 0 22 18 39 39 39 22 0 39-17 39-39 0-21-17-39-39-39z m-312 0c-22 0-40 18-40 39 0 22 18 39 40 39 21 0 39-17 39-39 0-21-18-39-39-39z" horiz-adv-x="938" />

<glyph glyph-name="archive" unicode="&#xe82e;" d="M688-98h-375c-138 0-157 75-157 156v366c0 17 14 31 32 31 17 0 31-14 31-31v-366c0-72 12-93 94-93h375c81 0 93 21 93 93v366c0 17 14 31 32 31 17 0 31-14 31-31v-366c0-81-19-156-156-156z m104 500h-584c-100 0-156 56-156 156v84c0 101 56 156 156 156h584c101 0 156-55 156-156v-84c0-100-55-156-156-156z m-584 333c-65 0-93-27-93-93v-84c0-65 28-93 93-93h584c66 0 93 28 93 93v84c0 66-27 93-93 93h-584z m368-500h-152c-17 0-31 15-31 32 0 17 14 31 31 31h152c17 0 31-14 31-31 0-17-14-32-31-32z" horiz-adv-x="1000" />

<glyph glyph-name="uploading" unicode="&#xe82f;" d="M1 157c-4 20 4 36 17 45 5 4 10 6 15 7 6 2 12 2 18 1 15-2 30-12 35-32 3-13 6-25 8-38 3-10 5-21 7-32 9-44 15-72 31-85 17-15 50-20 112-20h523c58 0 88 6 103 20 16 14 21 40 29 82l0 0c2 9 4 19 7 34 2 13 5 26 8 39 5 20 20 30 35 32 6 1 12 1 18-1 5-1 11-3 15-7 13-9 21-25 17-45l0 0c-3-11-6-23-8-35-2-10-4-22-7-33l0 0c-11-61-20-103-51-132-31-29-79-41-166-41h-523c-91 0-141 11-173 39-33 30-43 72-55 136-3 13-5 25-7 34-3 11-5 22-8 32z m256 373l241 253 245-257-68-64-130 137 0-309h-93l0 310-127-134-68 64z m288-287l0-44h-93l0 44h93z m0-73l0-37h-92l-1 37h93z" horiz-adv-x="1000" />

<glyph glyph-name="audio" unicode="&#xe830;" d="M500 173c-109 0-198 89-198 198v229c0 109 89 198 198 198 109 0 198-89 198-198v-229c0-109-89-198-198-198z m0 562c-75 0-135-60-135-135v-229c0-75 60-136 135-136 75 0 135 61 135 136v229c0 75-60 135-135 135z m0-708c-193 0-350 157-350 350v71c0 17 14 31 31 31 17 0 32-14 32-31v-71c0-158 129-287 287-287 158 0 288 129 288 287v71c0 17 14 31 31 31 17 0 31-14 31-31v-71c0-193-157-350-350-350z m58 524c-3 0-7 0-11 2-30 11-64 11-94 0-16-6-34 2-40 18-6 17 2 34 19 40 44 16 93 16 137 0 16-6 24-23 19-40-5-12-18-20-30-20z m-25-88c-3 0-5 0-8 1-17 4-34 4-50 0-17-5-34 5-39 22-4 16 6 33 22 38 27 7 57 7 84 0 16-5 26-22 22-39-4-13-17-22-31-22z m-33-561c-17 0-31 14-31 31v125c0 17 14 32 31 32 17 0 31-15 31-32v-125c0-17-14-31-31-31z" horiz-adv-x="1000" />

<glyph glyph-name="embed" unicode="&#xe831;" d="M333 235c-8 0-15 3-22 10l-83 83c-12 12-12 32 0 44l83 83c12 13 32 13 44 0 13-12 13-32 0-44l-61-61 61-61c13-12 13-32 0-44-6-7-14-10-22-10z m334 0c-8 0-16 3-22 10-12 12-12 32 0 44l61 61-61 61c-12 12-12 32 0 44 12 13 32 13 44 0l83-83c12-12 12-32 0-44l-83-83c-6-7-14-10-22-10z m-167-333c-247 0-448 201-448 448 0 247 201 448 448 448 247 0 448-201 448-448 0-247-201-448-448-448z m0 833c-212 0-385-172-385-385 0-212 173-385 385-385 213 0 385 173 385 385 0 213-172 385-385 385z m-42-513c-4 0-8 1-12 2-16 7-23 25-16 41l83 195c7 16 25 23 41 16 16-6 24-25 16-41l-83-195c-5-11-17-18-29-18z" horiz-adv-x="1000" />

<glyph glyph-name="open-eye" unicode="&#xe832;" d="M500 170c-100 0-180 80-180 180 0 100 80 180 180 180 100 0 180-80 180-180 0-100-80-180-180-180z m0 298c-65 0-118-53-118-118 0-65 53-118 118-118 65 0 118 53 118 118 0 65-53 118-118 118z m0-494c-157 0-305 92-406 251-44 69-44 181 0 250 102 159 250 251 406 251 156 0 304-92 406-251 44-69 44-181 0-250-102-159-250-251-406-251z m0 689c-135 0-263-80-353-222-32-48-32-133 0-182 90-141 218-222 353-222 135 0 263 81 353 222 32 49 32 134 0 182-90 142-218 222-353 222z" horiz-adv-x="1000" />

<glyph glyph-name="video" unicode="&#xe833;" d="M537-19h-253c-148 0-201 104-201 200v338c0 144 57 200 201 200h253c144 0 200-56 200-200v-338c0-144-56-200-200-200z m-253 675c-109 0-137-28-137-137v-338c0-51 18-137 137-137h253c108 0 137 29 137 137v338c0 109-29 137-137 137h-253z m582-561c-18 0-41 6-67 25l-111 78c-9 5-14 15-14 25v254c0 10 5 20 14 26l111 77c49 35 86 25 103 16 17-9 46-33 46-93v-305c0-61-29-85-46-94-8-4-21-9-36-9z m-129 145l98-68c19-13 32-14 38-12 5 3 12 15 12 38v305c0 22-7 34-12 37-6 3-19 1-38-12l-98-68v-220z m-258 120c-51 0-94 43-94 94 0 52 43 94 94 94 52 0 94-42 94-94 0-51-42-94-94-94z m0 125c-17 0-31-14-31-31 0-17 14-31 31-31 17 0 31 14 31 31 0 17-14 31-31 31z" horiz-adv-x="1000" />

<glyph glyph-name="small-caps" unicode="&#xe834;" d="M775 572c-17 0-31 14-31 31v63c0 25-20 46-46 46h-538c-25 0-46-21-46-46v-63c0-17-14-31-31-31-18 0-31 14-31 31v63c0 60 48 108 108 108h538c60 0 109-48 109-108v-63c0-17-14-31-32-31z m-346-507c-17 0-31 14-31 31v616c0 17 14 31 31 31 17 0 31-14 31-31v-616c0-18-14-31-31-31z m91 0h-232c-18 0-32 14-32 31 0 17 14 31 32 31h232c17 0 31-14 31-31 0-17-14-31-31-31z m397 235c-17 0-31 14-31 31v34c0 12-11 23-24 23h-292c-17 0-31 14-31 32 0 17 14 31 31 31h292c48 0 86-39 86-86v-34c0-17-13-31-31-31z m-247-374c-17 0-31 14-31 31v440c0 17 14 31 31 31 17 0 31-14 31-31v-440c0-17-14-31-31-31z m89 0h-178c-17 0-31 14-31 31 0 17 14 31 31 31h178c17 0 31-14 31-31 0-17-14-31-31-31z" horiz-adv-x="1000" />

<glyph glyph-name="left-align" unicode="&#xe835;" d="M875 631h-750c-17 0-31 14-31 32 0 17 14 31 31 31h750c17 0 31-14 31-31 0-18-14-32-31-32z m-355-208h-395c-17 0-31 14-31 31 0 17 14 31 31 31h395c17 0 31-14 31-31 0-17-14-31-31-31z m355-208h-750c-17 0-31 14-31 31 0 17 14 31 31 31h750c17 0 31-14 31-31 0-17-14-31-31-31z m-355-209h-395c-17 0-31 14-31 32 0 17 14 31 31 31h395c17 0 31-14 31-31 0-18-14-32-31-32z" horiz-adv-x="1000" />

<glyph glyph-name="underline" unicode="&#xe836;" d="M792-56h-584c-17 0-31 14-31 31 0 17 14 31 31 31h584c17 0 31-14 31-31 0-17-14-31-31-31z m-292 166c-178 0-323 145-323 323v292c0 17 14 31 31 31 17 0 32-14 32-31v-292c0-143 116-260 260-260 144 0 260 117 260 260v292c0 17 15 31 32 31 17 0 31-14 31-31v-292c0-178-145-323-323-323z" horiz-adv-x="1000" />

<glyph glyph-name="italic" unicode="&#xe837;" d="M787 694h-386c-17 0-31 14-31 31 0 17 14 31 31 31h386c17 0 31-14 31-31 0-17-14-31-31-31z m-188-750h-386c-17 0-31 14-31 31 0 17 14 31 31 31h386c17 0 31-14 31-31 0-17-14-31-31-31z m-193 0c-2 0-5 0-7 0-17 5-27 22-23 38l187 750c5 17 21 28 38 23 17-4 27-21 23-38l-187-750c-4-14-17-23-31-23z" horiz-adv-x="1000" />

<glyph glyph-name="search" unicode="&#xe838;" d="M458-25c-229 0-416 187-416 417 0 229 187 416 416 416 230 0 417-187 417-416 0-230-187-417-417-417z m0 772c-196 0-355-159-355-355 0-196 159-356 355-356 197 0 356 160 356 356 0 196-159 355-356 355z m280-605c8 0 15-3 21-9l191-192c11-11 11-30 0-41-12-11-31-11-42 0l-191 192c-11 12-11 30 0 41 6 6 14 9 21 9z" horiz-adv-x="1000" />

<glyph glyph-name="justify-center" unicode="&#xe839;" d="M875 631h-750c-17 0-31 14-31 32 0 17 14 31 31 31h750c17 0 31-14 31-31 0-18-14-32-31-32z m0-208h-750c-17 0-31 14-31 31 0 17 14 31 31 31h750c17 0 31-14 31-31 0-17-14-31-31-31z m0-208h-750c-17 0-31 14-31 31 0 17 14 31 31 31h750c17 0 31-14 31-31 0-17-14-31-31-31z m0-209h-750c-17 0-31 14-31 32 0 17 14 31 31 31h750c17 0 31-14 31-31 0-18-14-32-31-32z" horiz-adv-x="1000" />

<glyph glyph-name="center-align" unicode="&#xe83a;" d="M875 631h-750c-17 0-31 14-31 32 0 17 14 31 31 31h750c17 0 31-14 31-31 0-18-14-32-31-32z m-177-208h-395c-18 0-32 14-32 31 0 17 14 31 32 31h394c17 0 31-14 31-31 0-17-13-31-30-31z m177-208h-750c-17 0-31 14-31 31 0 17 14 31 31 31h750c17 0 31-14 31-31 0-17-14-31-31-31z m-177-209h-395c-18 0-32 14-32 32 0 17 14 31 32 31h394c17 0 31-14 31-31 0-18-13-32-30-32z" horiz-adv-x="1000" />

<glyph glyph-name="right-align" unicode="&#xe83b;" d="M875 631h-750c-17 0-31 14-31 32 0 17 14 31 31 31h750c17 0 31-14 31-31 0-18-14-32-31-32z m0-208h-395c-17 0-31 14-31 31 0 17 14 31 31 31h395c17 0 31-14 31-31 0-17-14-31-31-31z m0-208h-750c-17 0-31 14-31 31 0 17 14 31 31 31h750c17 0 31-14 31-31 0-17-14-31-31-31z m0-209h-395c-17 0-31 14-31 32 0 17 14 31 31 31h395c17 0 31-14 31-31 0-18-14-32-31-32z" horiz-adv-x="1000" />

<glyph glyph-name="tag" unicode="&#xe83c;" d="M503-66c-59 0-118 23-163 67l-188 189c-46 46-70 109-67 174l10 208c4 100 83 178 183 183l208 10c65 3 128-21 174-67l189-188c89-90 89-236 0-326l-183-183c-45-44-104-67-163-67z m-307 301l189-189c31-32 73-49 118-49 45 0 87 17 118 49l183 183c32 31 49 74 49 118 0 45-17 87-49 118l-189 189c-33 34-79 51-126 49l-208-10c-68-3-121-56-124-123l-10-209c-2-47 16-93 49-126z m200 84c-75 0-136 61-136 135 0 75 61 136 136 136 74 0 135-61 135-136 0-74-61-135-135-135z m0 208c-40 0-73-33-73-73 0-40 33-73 73-73 40 0 73 33 73 73 0 40-33 73-73 73z" horiz-adv-x="1000" />

<glyph glyph-name="attachment" unicode="&#xe83d;" d="M514-39c-46 0-91 17-126 52-69 69-69 181 0 250l104 103c12 12 32 12 44 0 12-12 12-32 0-44l-103-103c-45-45-45-118 0-162 44-45 117-45 162 0l162 162c49 49 76 114 76 184 0 70-27 135-76 184-102 102-267 102-369 0l-176-177c-42-41-64-96-64-154 0-58 22-113 64-155 12-12 12-32 0-44-12-12-32-12-44 0-53 53-83 124-83 199 0 75 29 146 83 199l176 176c126 126 331 126 457 0 61-61 94-142 94-228 0-86-33-168-94-228l-162-162c-35-35-80-52-125-52z" horiz-adv-x="1000" />

<glyph glyph-name="edit" unicode="&#xe83e;" d="M231-5c-26 0-49 9-66 25-22 20-32 51-29 85l16 135c3 25 18 59 36 77l342 362c85 91 175 93 265 8 90-86 93-175 8-265l-343-362c-17-19-50-37-75-41l-134-23c-7 0-13-1-20-1z m433 692c-32 0-60-20-89-50l-342-362c-8-9-18-30-19-42l-16-135c-1-14 2-25 10-32 7-7 18-10 32-8l134 23c12 2 32 13 41 22l342 362c51 55 70 106-5 177-34 32-62 45-88 45z m59-335c-1 0-2 0-3 0-130 13-235 112-255 241-2 17 9 33 26 36 17 2 33-9 36-26 16-101 98-179 199-189 17-1 30-17 28-34-2-16-16-28-31-28z" horiz-adv-x="1000" />

<glyph glyph-name="decrement" unicode="&#xe83f;" d="M568-33c-30-52-106-52-136 0l-406 703c-30 52 8 118 68 118h812c60 0 98-66 68-118l-406-703z" horiz-adv-x="1000" />

<glyph glyph-name="increment" unicode="&#xe840;" d="M432 733c30 52 106 52 136 0l406-703c30-52-8-118-68-118h-812c-60 0-98 66-68 118l406 703z" horiz-adv-x="1000" />

<glyph glyph-name="close-eye" unicode="&#xe84f;" d="M395 213c-8 0-16 3-22 10-35 34-53 79-53 127 0 100 80 180 180 180 48 0 93-18 128-52 5-6 9-14 9-23 0-8-4-16-9-22l-211-210c-7-7-14-10-22-10z m105 255c-65 0-118-53-118-118 0-21 6-41 16-58l160 161c-17 10-37 15-58 15z m-267-389c-7 0-14 2-20 7-45 38-85 85-119 139-44 69-44 181 0 250 102 159 250 251 406 251 92 0 182-32 261-91 14-11 17-30 7-44-11-14-30-17-44-6-69 51-146 78-224 78-135 0-263-80-353-222-32-48-32-133 0-182 31-49 67-91 106-125 13-11 15-31 4-44-6-7-15-11-24-11z m267-105c-55 0-110 11-162 34-15 6-23 25-16 40 6 16 25 24 41 17 44-19 90-28 137-28 134 0 263 81 353 222 31 49 31 134 0 182-13 21-27 40-42 59-11 13-9 33 4 44 14 11 33 9 45-5 16-20 32-41 46-64 44-69 44-181 0-250-102-159-250-251-406-251z m29 198c-15 0-28 11-31 26-3 17 8 33 25 36 46 8 84 46 92 92 4 17 20 28 37 25 17-3 28-19 25-36-13-72-71-130-142-143-2 1-4 0-6 0z m-446-270c-8 0-15 3-22 9-12 12-12 32 0 44l312 312c12 12 32 12 44 0 12-12 12-32 0-44l-312-312c-6-6-14-9-22-9z m522 522c-7 0-15 3-22 9-12 12-12 32 0 45l312 311c12 12 32 12 44 0 12-12 12-32 0-44l-311-312c-7-6-15-9-23-9z" horiz-adv-x="1000" />

<glyph glyph-name="add-outline" unicode="&#xe85b;" d="M500-98c-247 0-448 201-448 448 0 247 201 448 448 448 247 0 448-201 448-448 0-247-201-448-448-448z m0 833c-212 0-385-172-385-385 0-212 173-385 385-385 213 0 385 173 385 385 0 213-172 385-385 385z m167-416h-334c-17 0-31 14-31 31 0 17 14 31 31 31h334c17 0 31-14 31-31 0-17-14-31-31-31z m-167-167c-17 0-31 14-31 31v334c0 17 14 31 31 31 17 0 31-14 31-31v-334c0-17-14-31-31-31z" horiz-adv-x="1000" />

<glyph glyph-name="down-arrow-outline" unicode="&#xe85c;" d="M500-98c-247 0-448 201-448 448 0 247 201 448 448 448 247 0 448-201 448-448 0-247-201-448-448-448z m0 833c-212 0-385-172-385-385 0-212 173-385 385-385 213 0 385 173 385 385 0 213-172 385-385 385z m0-510c-8 0-16 3-22 9l-147 147c-12 12-12 32 0 44 12 12 32 12 44 0l125-125 125 125c12 12 32 12 44 0 12-12 12-32 0-44l-147-147c-6-6-14-9-22-9z" horiz-adv-x="1000" />

<glyph glyph-name="right-arrow" unicode="&#xe85d;" d="M371-11c-8 0-16 3-22 9-12 12-12 32 0 44l272 272c20 20 20 52 0 72l-272 272c-12 12-12 32 0 44 12 12 32 12 44 0l272-272c21-21 33-50 33-80 0-30-11-59-33-80l-272-272c-6-6-14-9-22-9z" horiz-adv-x="1000" />

<glyph glyph-name="close-panel" unicode="&#xe85e;" d="M624-98h-250c-226 0-323 97-323 323v250c0 226 97 323 323 323h250c226 0 323-97 323-323v-250c0-226-97-323-323-323z m-250 833c-192 0-261-68-261-260v-250c0-192 69-260 261-260h250c192 0 260 68 260 260v250c0 192-68 260-260 260h-250z m-42-833c-17 0-31 14-31 31v834c0 17 14 31 31 31 17 0 31-14 31-31v-834c0-17-13-31-31-31z m292 310c-8 0-16 3-22 9l-107 107c-12 12-12 32 0 44l107 107c12 12 32 12 44 0 12-12 12-32 0-44l-84-85 84-85c12-12 12-32 0-44-6-6-14-9-22-9z" horiz-adv-x="1000" />

<glyph glyph-name="open-panel" unicode="&#xe85f;" d="M624-98h-250c-226 0-323 97-323 323v250c0 226 97 323 323 323h250c226 0 323-97 323-323v-250c0-226-97-323-323-323z m-250 833c-192 0-261-68-261-260v-250c0-192 69-260 261-260h250c192 0 260 68 260 260v250c0 192-68 260-260 260h-250z m250-833c-17 0-31 14-31 31v834c0 17 14 31 31 31 17 0 31-14 31-31v-834c0-17-14-31-31-31z m-292 310c-8 0-16 3-22 9-12 12-12 32 0 44l85 85-85 85c-12 12-12 32 0 44 12 12 32 12 44 0l107-107c12-12 12-32 0-44l-107-107c-6-6-14-9-22-9z" horiz-adv-x="1000" />

<glyph glyph-name="trash" unicode="&#xe860;" d="M875 570c-1 0-2 0-3 0-221 22-441 30-659 8l-85-8c-17-2-33 10-34 28-2 17 11 32 28 34l85 8c221 23 446 14 671-8 17-2 30-17 28-34-1-16-15-28-31-28z m-521 42c-1 0-3 0-5 0-17 3-29 19-26 36l10 55c6 40 15 95 112 95h110c97 0 106-58 113-96l9-54c3-17-9-33-26-36-17-3-33 9-36 26l-9 54c-6 36-7 43-51 43h-109c-44 0-45-6-51-43l-10-54c-2-15-16-26-31-26z m280-710h-268c-145 0-151 80-156 146l-27 419c-1 17 12 32 30 33 17 1 32-12 33-29l27-419c5-64 6-87 93-87h268c87 0 89 23 93 87l27 419c1 17 16 30 34 29 17-1 30-15 29-33l-27-419c-5-66-11-146-156-146z m-65 229h-139c-17 0-31 14-31 32 0 17 14 31 31 31h139c17 0 31-14 31-31 0-18-14-32-31-32z m35 167h-208c-17 0-31 14-31 31 0 17 14 31 31 31h208c17 0 31-14 31-31 0-17-14-31-31-31z" horiz-adv-x="1000" />

<glyph glyph-name="check" unicode="&#xe861;" d="M835 585c20-19 20-51 0-70l-400-400c-19-20-51-20-70 0l-200 200c-20 19-20 51 0 70 19 20 51 20 70 0l165-164 365 364c19 20 51 20 70 0z" horiz-adv-x="1000" />

<glyph glyph-name="copy" unicode="&#xe862;" d="M463-98h-175c-163 0-236 73-236 236v175c0 162 73 235 236 235h175c162 0 235-73 235-235v-175c0-163-73-236-235-236z m-175 583c-130 0-173-43-173-172v-175c0-130 43-173 173-173h175c129 0 172 43 172 173v175c0 129-43 172-172 172h-175z m425-333h-46c-17 0-32 14-32 31v130c0 129-43 172-172 172h-130c-17 0-31 15-31 32v46c0 162 73 235 236 235h175c162 0 235-73 235-235v-175c0-163-73-236-235-236z m-15 63h15c129 0 172 43 172 173v175c0 129-43 172-172 172h-175c-130 0-173-43-173-172v-15h98c162 0 235-73 235-235v-98z" horiz-adv-x="1000" />

<glyph glyph-name="dashboard" unicode="&#xe863;" d="M292 402h-84c-100 0-156 56-156 156v84c0 101 56 156 156 156h84c101 0 156-55 156-156v-84c0-100-55-156-156-156z m-84 333c-65 0-93-27-93-93v-84c0-65 28-93 93-93h84c66 0 93 28 93 93v84c0 66-27 93-93 93h-84z m584-333h-84c-100 0-156 56-156 156v84c0 101 56 156 156 156h84c101 0 156-55 156-156v-84c0-100-55-156-156-156z m-84 333c-65 0-93-27-93-93v-84c0-65 28-93 93-93h84c66 0 93 28 93 93v84c0 66-27 93-93 93h-84z m84-833h-84c-100 0-156 55-156 156v84c0 101 56 156 156 156h84c101 0 156-55 156-156v-84c0-101-55-156-156-156z m-84 333c-65 0-93-27-93-93v-84c0-66 28-93 93-93h84c66 0 93 27 93 93v84c0 66-27 93-93 93h-84z m-416-333h-84c-100 0-156 55-156 156v84c0 101 56 156 156 156h84c101 0 156-55 156-156v-84c0-101-55-156-156-156z m-84 333c-65 0-93-27-93-93v-84c0-66 28-93 93-93h84c66 0 93 27 93 93v84c0 66-27 93-93 93h-84z" horiz-adv-x="1000" />

<glyph glyph-name="remove-outline" unicode="&#xe864;" d="M497-98c-247 0-448 201-448 448 0 247 201 448 448 448 246 0 448-201 448-448 0-247-201-448-448-448z m0 833c-213 0-386-172-386-385 0-212 173-385 386-385 212 0 385 173 385 385 0 213-173 385-385 385z m166-416h-333c-17 0-31 14-31 31 0 17 14 31 31 31h333c17 0 32-14 32-31 0-17-14-31-32-31z" horiz-adv-x="1000" />

<glyph glyph-name="notification" unicode="&#xe865;" d="M501-5c-97 0-194 15-286 46-35 12-62 37-74 69-12 32-8 67 12 99l47 79c10 17 20 50 20 70v120c0 155 126 282 281 282 155 0 281-127 281-282v-120c0-19 9-53 19-70l48-79c18-30 21-66 9-99-12-33-38-58-71-69-92-31-189-46-286-46z m0 702c-121 0-219-98-219-219v-120c0-30-12-75-28-102l-48-79c-9-16-11-32-6-46 5-14 18-25 35-31 174-58 358-58 533 0 15 5 26 17 32 32 5 15 4 31-5 45l-47 79c-16 27-28 72-28 102v120c0 121-98 219-219 219z m77-11c-3 0-5 0-8 1-12 3-24 6-35 8-36 4-70 2-102-8-12-4-24 0-32 9-8 9-11 21-6 32 17 44 59 73 106 73 48 0 89-28 107-73 4-11 2-23-6-32-7-7-15-10-24-10z m-77-786c-41 0-81 16-111 45-29 30-45 70-45 111h62c0-25 10-49 28-66 17-18 41-28 66-28 52 0 94 42 94 94h62c0-86-70-156-156-156z" horiz-adv-x="1000" />

<glyph glyph-name="close-outline" unicode="&#xe866;" d="M500-98c-247 0-448 201-448 448 0 247 201 448 448 448 247 0 448-201 448-448 0-247-201-448-448-448z m0 833c-212 0-385-172-385-385 0-212 173-385 385-385 213 0 385 173 385 385 0 213-172 385-385 385z m-118-534c-8 0-16 3-22 9-12 12-12 32 0 44l236 236c12 12 32 12 44 0 12-12 12-32 0-44l-236-236c-6-6-14-9-22-9z m236 0c-8 0-16 3-22 9l-236 236c-12 12-12 32 0 44 12 12 32 12 44 0l236-236c12-12 12-32 0-44-6-6-14-9-22-9z" horiz-adv-x="1000" />

<glyph glyph-name="close" unicode="&#xe867;" d="M221 71c8-8 17-13 29-13 13 0 21 5 29 13l221 221 221-221c8-8 21-13 29-13 8 0 21 5 29 13 17 17 17 42 0 58l-221 221 221 221c17 17 17 42 0 58-16 17-41 17-58 0l-221-221-221 221c-16 17-41 17-58 0-17-16-17-41 0-58l221-221-221-221c-17-16-17-41 0-58z" horiz-adv-x="1000" />

<glyph glyph-name="messages" unicode="&#xe868;" d="M416-99c-25 0-48 12-65 34l-50 67c0 0-2 1-3 1h-15c-143 0-231 39-231 231v166c0 176 107 222 197 230 10 1 22 1 34 1h267c150 0 230-80 230-231v-166c0-12 0-24-2-35-7-89-53-196-228-196h-17l-52-68c-16-22-40-34-65-34z m-133 668c-10 0-19-1-28-1-96-9-140-62-140-168v-166c0-143 44-169 168-169h17c18 0 40-10 51-25l50-67c9-13 21-13 30 0l50 67c12 16 32 25 52 25h17c105 0 158 45 166 140 2 10 2 19 2 29v166c0 117-52 169-168 169h-267z m133-310c-23 0-41 19-41 41 0 23 18 42 41 42 23 0 42-19 42-42 0-22-18-41-42-41z m134 0c-24 0-42 19-42 41 0 23 19 42 42 42 23 0 41-19 41-42 0-22-18-41-41-41z m-267 0c-23 0-41 19-41 41 0 23 18 42 41 42 23 0 42-19 42-42 0-22-19-41-42-41z m465-88c-9 0-17 4-23 10-7 7-10 16-8 25 1 9 1 18 1 28v166c0 117-52 169-168 169h-267c-9 0-18-1-27-1-9-2-19 2-26 8-6 7-10 16-9 25 7 90 54 197 229 197h267c151 0 231-80 231-231v-167c0-175-108-221-198-229-1 0-2 0-2 0z m-460 460h262c150 0 230-80 230-231v-161c71 18 105 70 105 161v167c0 116-52 168-169 168h-266c-92 0-144-33-162-104z" horiz-adv-x="1000" />

<glyph glyph-name="calendar" unicode="&#xe869;" d="M333 610c-17 0-31 15-31 32v125c0 17 14 31 31 31 17 0 32-14 32-31v-125c0-17-15-32-32-32z m334 0c-17 0-32 15-32 32v125c0 17 15 31 32 31 17 0 31-14 31-31v-125c0-17-14-32-31-32z m-313-364c-5 0-11 1-16 3-5 2-9 5-13 9-8 8-12 18-12 30 0 5 1 10 3 15 2 5 5 10 9 14 4 4 8 7 13 9 15 6 34 3 46-9 7-8 12-19 12-29 0-3-1-6-1-9 0-2-1-5-2-7-1-3-3-5-4-8-1-2-4-4-5-6-8-8-19-12-30-12z m146 0c-5 0-11 1-16 3-5 2-9 5-14 9-7 8-12 18-12 30 0 5 2 10 4 15 2 5 5 10 8 14 5 4 9 7 14 9 15 7 34 3 46-9 7-8 12-19 12-29 0-3-1-6-1-9-1-2-1-5-3-7 0-3-2-5-3-8-2-2-4-4-5-6-8-8-19-12-30-12z m146 0c-6 0-11 1-16 3-5 2-10 5-14 9-1 2-3 4-5 6-1 3-3 5-3 8-2 2-3 5-3 7 0 3-1 6-1 9 0 10 5 21 12 29 4 4 9 7 14 9 15 7 34 3 45-9 8-8 13-19 13-29 0-3-1-6-1-9-1-2-2-5-3-7-1-3-2-5-4-8-1-2-3-4-5-6-7-8-18-12-29-12z m-292-146c-5 0-11 1-16 3-5 2-9 5-13 9-8 8-12 19-12 30 0 5 1 11 3 16 2 5 5 10 9 13 15 16 43 16 59 0 7-8 12-18 12-29 0-11-5-22-12-30-8-7-19-12-30-12z m146 0c-11 0-22 5-30 12-7 8-12 19-12 30 0 5 2 11 4 16 2 5 5 10 8 13 16 16 44 16 60 0 3-3 6-8 8-13 2-5 4-11 4-16 0-11-5-22-12-30-8-7-19-12-30-12z m146 0c-11 0-22 5-30 12-3 4-6 8-8 14-3 5-4 10-4 16 0 5 1 11 4 16 2 5 5 10 8 13 10 10 24 14 38 12 3-1 5-2 8-3 2-1 5-2 7-4 2-1 4-3 6-5 8-8 13-18 13-29 0-11-5-22-13-30-7-7-18-12-29-12z m208 340h-708c-17 0-31 14-31 31 0 17 14 32 31 32h708c17 0 31-15 31-32 0-17-14-31-31-31z m-187-538h-334c-152 0-239 88-239 240v354c0 152 87 239 239 239h334c152 0 239-87 239-239v-354c0-152-87-240-239-240z m-334 771c-119 0-177-58-177-177v-354c0-119 58-177 177-177h334c119 0 177 58 177 177v354c0 119-58 177-177 177h-334z" horiz-adv-x="1000" />

<glyph glyph-name="edit-1" unicode="&#xe86a;" d="M625-98h-250c-226 0-323 97-323 323v250c0 226 97 323 323 323h83c17 0 32-14 32-31 0-17-15-32-32-32h-83c-192 0-260-68-260-260v-250c0-192 68-260 260-260h250c192 0 260 68 260 260v83c0 17 15 32 32 32 17 0 31-15 31-32v-83c0-226-97-323-323-323z m-271 211c-25 0-49 9-66 26-20 20-29 50-24 81l18 125c3 25 19 56 36 73l328 328c83 83 167 83 250 0 46-45 66-91 62-138-4-37-24-74-62-111l-328-329c-17-17-48-33-73-36l-125-18c-5-1-11-1-16-1z m336 589l-328-328c-8-8-17-26-19-37l-18-126c-1-12 1-22 8-28 6-6 16-9 28-7l125 18c11 1 30 11 37 19l329 328c27 27 41 51 43 74 3 27-12 55-43 88-67 66-113 47-162-1z m137-262c-3 0-6 1-8 2-110 31-197 118-228 227-4 17 5 34 22 39 17 5 34-5 38-22 25-88 96-159 184-184 17-4 27-22 22-39-4-14-16-23-30-23z" horiz-adv-x="1000" />

<glyph glyph-name="add" unicode="&#xe86b;" d="M750 319h-500c-17 0-31 14-31 31 0 17 14 31 31 31h500c17 0 31-14 31-31 0-17-14-31-31-31z m-250-250c-17 0-31 14-31 31v500c0 17 14 31 31 31 17 0 31-14 31-31v-500c0-17-14-31-31-31z" horiz-adv-x="1000" />

<glyph glyph-name="image" unicode="&#xe86c;" d="M625-98h-250c-226 0-323 97-323 323v250c0 226 97 323 323 323h250c226 0 323-97 323-323v-250c0-226-97-323-323-323z m-250 833c-192 0-260-68-260-260v-250c0-192 68-260 260-260h250c192 0 260 68 260 260v250c0 192-68 260-260 260h-250z m0-333c-63 0-115 51-115 115 0 63 52 114 115 114 63 0 115-51 115-114 0-64-52-115-115-115z m0 167c-29 0-52-24-52-52 0-29 23-52 52-52 29 0 52 23 52 52 0 28-23 52-52 52z m-264-540c-10 0-20 5-26 14-9 14-5 34 9 43l206 138c45 31 107 27 148-8l13-12c21-18 57-18 77 0l173 149c44 38 114 38 159 0l68-58c12-12 14-31 3-45-11-12-31-14-44-3l-68 58c-21 18-56 18-77 0l-174-148c-44-38-113-38-158 0l-14 12c-19 16-51 18-72 3l-205-138c-6-3-12-5-18-5z" horiz-adv-x="1000" />

<glyph glyph-name="link" unicode="&#xe86e;" d="M688 90h-63c-17 0-32 14-32 31 0 17 15 31 32 31h63c109 0 197 89 197 198 0 109-88 198-197 198h-63c-17 0-31 14-31 31 0 17 14 31 31 31h63c143 0 260-116 260-260 0-144-117-260-260-260z m-313 0h-62c-144 0-261 116-261 260 0 144 117 260 261 260h62c17 0 31-14 31-31 0-17-14-31-31-31h-62c-110 0-198-89-198-198 0-109 88-198 198-198h62c17 0 31-14 31-31 0-17-14-31-31-31z m292 229h-334c-17 0-31 14-31 31 0 17 14 31 31 31h334c17 0 31-14 31-31 0-17-14-31-31-31z" horiz-adv-x="1000" />

<glyph glyph-name="like" unicode="&#xe870;" d="M919 456c-11 13-24 23-39 30-14 8-31 11-47 11h-208v160c0 29-12 57-32 78-21 20-49 32-78 32h-14c-12 0-24-3-35-9-10-6-19-14-26-24l-157-237h-90c-29 0-57-11-77-32-21-20-33-48-33-77v-306c0-29 12-57 33-78 20-20 48-32 77-32h601c16 0 33 5 46 15 14 11 23 26 27 42l73 334c3 16 3 33 0 49-4 16-11 31-21 44z m-762-374v306c0 9 3 19 10 25 7 7 16 11 26 11h73v-379h-73c-10 0-19 4-26 11-7 7-10 16-10 26z m637-37h-454v405l161 244h14c10 0 19-4 26-11 7-7 11-16 11-26v-196c0-10 4-19 11-26 6-7 16-11 25-11h245c6 0 11-1 16-3 5-3 10-6 13-10 4-5 6-10 8-15 1-5 1-11 0-17l-76-334z" horiz-adv-x="1000" />

<glyph glyph-name="dislike" unicode="&#xe871;" d="M82 244c10-13 23-23 38-30 14-7 31-11 47-11l208 0 0-160c0-29 12-57 32-78 21-20 49-32 78-32l14 0c13 0 24 3 35 9 11 6 20 14 26 24l157 237 90 0c29 0 57 11 78 32 20 21 32 48 32 78l0 305c0 29-12 57-32 78-21 20-49 32-78 32l-600 0c-17 0-34-5-47-15-14-11-23-26-27-42l-73-334c-3-16-3-33 0-49 4-16 11-31 22-44z m762 374l0-305c0-10-4-19-11-26-7-7-16-11-26-11l-73 0 0 379 73 0c10 0 19-4 26-11 7-7 11-16 11-26z m-637 37l453 0 0-405-161-243-14 0c-10 0-19 3-26 10-7 7-11 16-11 26l0 196c0 10-4 19-10 26-7 7-17 11-26 11l-245 0c-5 0-11 1-16 3-5 3-10 6-13 10-4 5-6 10-7 15-2 6-2 11 0 17l76 334z" horiz-adv-x="1000" />

<glyph glyph-name="share" unicode="&#xe872;" d="M250 225c69 0 125 56 125 125 0 69-56 125-125 125-69 0-125-56-125-125 0-69 56-125 125-125z m438-281c69 0 125 56 125 125 0 69-56 125-125 125-69 0-125-56-125-125 0-69 56-125 125-125z m0 562c69 0 125 56 125 125 0 69-56 125-125 125-69 0-125-56-125-125 0-69 56-125 125-125z m-106 58l-227-146m0-136l227-146" horiz-adv-x="1000" />

<glyph glyph-name="logout" unicode="&#xe873;" d="M208 642h250c23 0 42 18 42 41 0 23-19 42-42 42h-250c-45 0-83-37-83-83v-584c0-45 38-83 83-83h250c23 0 42 19 42 42 0 23-19 41-42 41h-250v584z m652-277l-116 116c-13 13-36 4-36-15v-74h-291c-23 0-42-19-42-42 0-23 19-42 42-42h291v-74c0-19 23-28 36-15l116 116c8 8 8 22 0 30z" horiz-adv-x="1000" />

<glyph glyph-name="attach" unicode="&#xe874;" d="M514-39c-46 0-91 17-126 52-69 69-69 181 0 250l104 103c12 12 32 12 44 0 12-12 12-32 0-44l-103-103c-45-45-45-118 0-162 44-45 117-45 162 0l162 162c49 49 76 114 76 184 0 70-27 135-76 184-102 102-267 102-369 0l-176-177c-42-41-64-96-64-154 0-58 22-113 64-155 12-12 12-32 0-44-12-12-32-12-44 0-53 53-83 124-83 199 0 75 29 146 83 199l176 176c126 126 331 126 457 0 61-61 94-142 94-228 0-86-33-168-94-228l-162-162c-35-35-80-52-125-52z" horiz-adv-x="1000" />

<glyph glyph-name="link-2" unicode="&#xe875;" d="M541 133c29 29 73-15 44-44l-72-71c-152-152-416-47-416 172h-1c0 63 24 126 72 173l71 72c29 29 73-15 44-44l-71-72c-36-35-53-82-53-129h-1c0-163 198-242 311-128l72 71z m97 399l-319-320c-29-28 15-72 43-43l320 319c28 29-15 72-44 44z m-179 35l72 71c35 36 82 54 129 54 163 0 242-198 128-311l-71-72c-29-29 15-73 44-44l71 72c48 47 72 110 72 173 0 218-265 325-417 172l-72-71c-29-29 15-73 44-44z" horiz-adv-x="1000" />

<glyph glyph-name="volume" unicode="&#xe876;" d="M523-8c-33 0-69 12-105 35l-122 76c-8 5-18 8-28 8h-60c-100 0-156 55-156 156v167c0 101 56 156 156 156h60c10 0 19 3 27 8l122 76c61 38 120 45 167 19 46-25 72-79 72-151v-382c0-72-26-126-72-152-19-11-39-16-61-16z m-315 535c-65 0-93-28-93-94v-166c0-66 28-94 93-94h60c22 0 42-6 61-18l121-76c40-25 78-31 104-17 25 14 40 49 40 96v383c0 48-15 83-40 97-26 14-64 8-104-18l-122-75c-18-12-39-18-60-18h-60z m542-375c-7 0-13 2-19 6-13 11-16 30-6 44 65 87 65 209 0 296-10 14-7 33 6 44 14 10 34 7 44-7 82-109 82-261 0-370-6-9-15-13-25-13z m76-104c-6 0-13 2-18 6-14 11-17 30-7 44 112 148 112 356 0 504-10 14-7 33 7 44 13 10 33 7 43-6 128-171 128-409 0-580-6-8-15-12-25-12z" horiz-adv-x="1000" />

<glyph glyph-name="user-access" unicode="&#xe877;" d="M665-38c-8 0-16 3-22 9l-63 63c-12 12-12 32 0 44 12 12 32 12 44 0l41-41 105 105c12 12 32 12 44 0 12-12 12-32 0-44l-127-127c-6-6-14-9-22-9z m-158 404c-2 0-2 0-4 0-2 0-5 0-7 0-121 4-212 99-212 216-1 57 22 111 63 152 41 41 95 64 153 64 119 0 216-97 216-216 0-117-91-212-208-216 0 0-1 0-1 0z m-7 369c-42 0-80-16-109-45-29-29-45-67-45-108 0-83 65-151 148-153 3 0 8 0 14 0 82 4 145 71 145 153 0 84-69 153-153 153z m0-825c-85 0-166 22-227 63-58 39-89 92-89 149 0 57 32 109 89 148 125 83 327 83 452 0 14-10 18-30 9-44-10-14-29-18-44-8-103 69-278 69-382 0-40-27-62-61-62-96 0-36 22-70 62-97 50-34 118-52 191-52 17 0 31-14 31-31 0-17-13-32-30-32z" horiz-adv-x="1000" />

<glyph glyph-name="promotion" unicode="&#xe878;" d="M650 668c31 0 61-13 84-35 22-22 34-52 34-83 0-7 3-13 8-18 4-4 11-7 17-7 7 0 13 3 18 7 5 5 7 11 7 18 0 45-18 87-49 119-32 31-74 49-119 49-7 0-13-3-18-8-4-4-7-11-7-17 0-7 3-13 7-18 5-5 11-7 18-7z m0 122c64 0 125-25 170-70 45-45 70-106 70-170 0-7 3-13 7-18 5-4 11-7 18-7 7 0 13 3 18 7 4 5 7 11 7 18 0 77-31 151-85 205-54 54-128 85-205 85-7 0-13-3-18-7-4-5-7-11-7-18 0-7 3-13 7-18 5-4 11-7 18-7z m-559-800c10-10 22-18 36-24 13-5 27-8 41-8 15 0 29 3 42 8 13 6 26 14 36 24l16 16c19-14 43-21 67-19 23 2 46 12 63 29l30 30 165-165c7-7 15-12 23-16 9-3 18-5 28-4 23 0 45 9 61 25 32 33 34 83 5 112l-165 165c64 57 131 72 218 76l10-10c8-8 17-15 27-19 11-5 21-7 33-7 11 0 22 2 32 6 10 4 19 10 27 18 8 8 14 17 18 28 4 10 6 21 6 32 0 11-2 22-7 32-4 10-11 19-19 27l-437 437c-16 14-37 22-58 21-21 0-41-9-56-24-15-15-24-35-24-56-1-21 7-42 21-58l10-10c-4-95-21-165-91-235l-132-131c-17-17-27-39-29-63-2-24 5-48 19-67l-16-15c-10-10-18-22-23-36-6-13-9-27-9-42 0-14 3-28 9-41 5-14 13-26 23-36z m77 18c-11 0-23 3-32 10-10 6-18 16-22 27-5 10-6 22-4 34 3 11 8 22 17 30l15 15 83-84-15-14c-5-6-12-10-19-13-7-3-15-5-23-5l0 0z m495-87c-12-13-31-15-40-6l-166 167 46 46 166-166c9-10 7-28-6-41l0 0z m-298 827c6 6 15 9 23 9 9 0 17-3 23-9l438-437c6-7 9-15 9-24 0-8-3-17-9-23-7-6-15-9-24-9-8 0-16 3-23 9l-437 438c-6 6-9 14-9 23 0 8 3 17 9 23z m345-463c-78-7-143-30-207-87l-204 204c58 64 80 130 87 208l324-325z m-558-30l112 112 203-204-111-111c-5-5-10-9-16-11-6-3-13-4-20-4-6 0-13 1-19 4-6 2-12 6-16 11l-132 132c-5 5-9 10-11 16-3 6-4 13-4 20 0 6 1 13 4 19 2 6 6 12 11 16l-1 0z" horiz-adv-x="1000" />

<glyph glyph-name="blog" unicode="&#xe879;" d="M667-98h-542c-40 0-73 33-73 73v542c0 184 97 281 281 281h334c184 0 281-97 281-281v-334c0-184-97-281-281-281z m-334 833c-149 0-218-69-218-218v-542c0-6 4-10 10-10h542c149 0 218 69 218 218v334c0 149-69 218-218 218h-334z m375-312h-416c-17 0-32 14-32 31 0 17 15 31 32 31h416c17 0 32-14 32-31 0-17-15-31-32-31z m-125-208h-291c-17 0-32 14-32 31 0 17 15 31 32 31h291c17 0 32-14 32-31 0-17-15-31-32-31z" horiz-adv-x="1000" />

<glyph glyph-name="up-arrow-outline" unicode="&#xe87b;" d="M500 798c247 0 448-201 448-448 0-247-201-448-448-448-247 0-448 201-448 448 0 247 201 448 448 448z m0-833c213 0 385 173 385 385 0 213-172 385-385 385-212 0-385-172-385-385 0-212 173-385 385-385z m0 510c8 0 16-2 22-9l147-147c12-12 12-32 0-44-12-12-32-12-44 0l-125 125-125-125c-12-12-32-12-44 0-12 12-12 32 0 44l147 147c6 7 14 9 22 9z" horiz-adv-x="1000" />

<glyph glyph-name="alert" unicode="&#xe882;" d="M496 604c23 0 41-18 41-41v-269c0-22-18-41-41-41-22 0-40 19-40 41v269c0 23 18 41 40 41z m0-526c30 0 54 24 54 54 0 30-24 54-54 54-29 0-54-24-54-54 0-30 25-54 54-54z m-18 747c12 2 25 2 37 0 27-3 52-18 84-36l229-132c32-18 57-33 74-55 7-10 13-20 18-32 11-25 11-54 11-91v-264c0-37 0-66-11-91-5-12-11-22-18-32-17-22-42-37-74-55l-229-132c-32-19-57-33-84-37-12-1-25-1-37 0-28 4-52 18-84 37l-229 132c-32 18-57 33-74 55-7 10-13 20-18 32-11 25-11 54-11 91v264c0 37 0 66 11 91 5 12 11 22 18 32 17 22 42 37 74 55l229 132c32 18 56 33 84 36z m27-75c-6 1-11 1-17 0-11-1-22-7-61-30l-219-126c-40-23-50-30-56-38-4-5-7-10-9-15-4-10-4-22-4-68v-252c0-46 0-58 4-68 2-5 5-10 9-15 6-8 16-15 56-38l219-126c39-23 50-29 61-30 6-1 11-1 17 0 10 1 21 7 61 30l219 126c39 23 50 30 56 38 4 5 6 10 9 15 4 10 4 22 4 68v252c0 46 0 58-4 68-3 5-5 10-9 15-6 8-17 15-56 38l-219 126c-40 23-51 29-61 30z" horiz-adv-x="1000" />

<glyph glyph-name="refresh" unicode="&#xe8b6;" d="M500 22c-81 0-160 30-220 84-61 55-99 130-107 211 0 4-1 8-3 12-2 4-5 7-8 9-3 3-7 5-11 6-4 1-8 2-12 1-4 0-8-1-12-3-3-2-6-5-9-8-3-3-5-7-6-11-1-4-1-8-1-12 8-83 43-161 99-222 56-62 130-105 211-121 82-17 167-7 242 28 76 35 138 93 178 166l33-94c2-6 6-12 11-15 5-4 12-6 18-6 4 0 7 0 10 1 4 2 8 4 11 6 3 3 6 6 8 10 1 4 2 8 3 12 0 4-1 8-2 12l-60 174c-3 8-9 15-16 18-8 4-16 4-24 2l-175-60c-4-2-7-4-11-6-3-3-5-6-7-10-4-8-4-16-1-24 2-8 8-14 15-18 8-4 16-4 24-1l113 38c-27-53-69-99-120-130-52-32-111-49-171-49z m0 719c-69-1-136-19-196-53-59-35-109-85-143-144l-34 97c-2 4-4 8-6 11-3 3-6 5-10 7-8 4-16 4-24 2-8-3-14-9-18-16-4-8-4-16-1-24l60-175c2-6 6-11 11-15 5-4 12-6 18-6 4 0 7 1 10 2l175 60c8 2 14 8 18 15 4 8 4 17 2 24-3 8-9 15-16 18-8 4-16 5-24 2l-110-38c34 61 87 110 150 140 64 29 135 37 203 23 69-13 131-49 178-101 47-52 76-117 83-187 1-8 5-15 10-20 6-5 14-8 22-8h1c5 0 8 2 12 4 4 2 7 4 9 7 3 4 5 7 6 11 1 4 2 8 1 12-9 97-54 186-125 251-72 65-165 101-262 101z" horiz-adv-x="1000" />

<glyph glyph-name="checkmark-circle" unicode="&#xf06d;" d="M0 350q0 95 37 182t100 149 150 100 182 37 182-37 149-100 100-149 37-182-37-182-100-150-149-100-182-37-182 37-150 100-100 150-37 182z m177-31q0-22 15-38l153-153q14-15 38-15 22 0 37 15l315 315q16 16 16 38t-16 37-38 15-37-15l-277-278-116 116q-15 15-37 15t-38-15q-15-16-15-37z" horiz-adv-x="937.5" />

<glyph glyph-name="menu" unicode="&#xf0c9;" d="M857 100v-71q0-15-10-25t-26-11h-785q-15 0-25 11t-11 25v71q0 15 11 25t25 11h785q15 0 26-11t10-25z m0 286v-72q0-14-10-25t-26-10h-785q-15 0-25 10t-11 25v72q0 14 11 25t25 10h785q15 0 26-10t10-25z m0 285v-71q0-14-10-25t-26-11h-785q-15 0-25 11t-11 25v71q0 15 11 26t25 10h785q15 0 26-10t10-26z" horiz-adv-x="857.1" />

<glyph glyph-name="play-circled" unicode="&#xf144;" d="M429 779q116 0 215-58t156-156 57-215-57-215-156-156-215-58-216 58-155 156-58 215 58 215 155 156 216 58z m214-460q18 10 18 31t-18 31l-304 178q-17 11-35 1-18-11-18-31v-358q0-20 18-31 9-4 17-4 10 0 18 5z" horiz-adv-x="857.1" />

<glyph glyph-name="youtube" unicode="&#xf16a;" d="M397 221l270 139-270 141v-280z m103 481q94 0 181-3t128-5l41-2q0 0 9-1t13-2 13-2 16-5 16-7 17-11 16-15q4-3 9-10t16-33 15-56q4-36 7-76t3-64v-98q1-81-10-162-4-30-14-55t-18-35l-8-9q-7-8-16-15t-17-10-16-7-16-5-13-2-13-2-9-1q-140-11-350-11-115 2-201 4t-111 4l-28 3-20 2q-20 3-30 5t-29 12-31 23q-4 3-9 10t-16 33-15 56q-4 36-7 76t-3 64v98q-1 81 10 162 4 31 14 55t18 35l8 9q8 9 16 15t17 11 16 7 16 5 13 2 13 2 9 1q140 10 350 10z" horiz-adv-x="1000" />
</font>
</defs>
</svg>
